<svg id="Layer_1" data-name="Layer 1" xmlns="http://www.w3.org/2000/svg" viewBox="0 0 68.94 86.65"><path d="M55.01,26.09H13.93c-1.5,0-2.71,1.21-2.71,2.71s1.21,2.71,2.71,2.71h41.09c1.5,0,2.71-1.21,2.71-2.71s-1.21-2.71-2.71-2.71ZM55.01,40.62H13.93c-1.5,0-2.71,1.21-2.71,2.71s1.21,2.71,2.71,2.71h41.09c1.5,0,2.71-1.21,2.71-2.71s-1.21-2.71-2.71-2.71ZM37.72,55.14H13.93c-1.5,0-2.71,1.21-2.71,2.71s1.21,2.71,2.71,2.71h23.8c1.5,0,2.71-1.21,2.71-2.71s-1.21-2.71-2.71-2.71ZM63.52,65.75l-15.37,15.41v-13.78c.03-.89.75-1.61,1.64-1.63h13.73ZM61.85,5.46c.89.02,1.62.74,1.64,1.63l.03,53.2h-13.69c-3.89,0-7.05,3.12-7.13,7v13.88l-35.62-.03c-.89-.02-1.61-.74-1.64-1.63V7.1c.03-.89.75-1.61,1.64-1.63h54.76ZM61.81,0h0S7.13,0,7.13,0C3.24,0,.07,3.13,0,7.01v72.6c.07,3.88,3.23,7,7.12,7h0s0,0,0,0l42.07.04c.69,0,1.38-.27,1.91-.79l17.03-17.08c.56-.57.83-1.32.79-2.06V7.01C68.93,3.13,65.7,0,61.81,0h0Z"/></svg>