<svg id="Layer_1" data-name="Layer 1" xmlns="http://www.w3.org/2000/svg" viewBox="0 0 7.45 6.72"><path d="M4.29,3.01s.04-.08.08-.08.08.04.08.09-.04.09-.08.09-.08-.04-.08-.09ZM3.78,1.38s-.04.08-.09.08-.08-.04-.08-.09c.01-.21.1-.39.24-.52.14-.13.33-.21.53-.21s.39.08.53.21c.14.13.23.32.24.52,0,.28-.18.46-.35.65-.16.17-.33.34-.33.59,0,.05-.04.08-.08.08s-.08-.04-.08-.08c0-.32.19-.52.38-.71.15-.16.31-.31.31-.53,0-.16-.08-.3-.19-.4-.11-.1-.25-.17-.42-.17s-.31.06-.42.17c-.11.1-.18.25-.19.41ZM5.7.55c-.34-.34-.81-.55-1.32-.55s-.98.21-1.32.55c-.34.34-.55.81-.55,1.32,0,.15.02.29.05.42.03.14.08.27.14.4,0,.02.01.04,0,.06l-.17.78.79-.09s.04,0,.05.01c.15.09.31.16.48.21.16.05.34.07.52.07.52,0,.98-.21,1.32-.55.34-.34.55-.81.55-1.32s-.21-.98-.55-1.32ZM6.4,4.56c-.09-.15-.21-.28-.36-.38-.15-.1-.32-.17-.51-.19-.14-.02-.28-.01-.41.02-.14.03-.27.08-.38.16-.1.06-.21.11-.31.14-.11.03-.22.05-.34.05h-1.16c-.08.02-.14.07-.18.13-.05.06-.08.14-.08.22s.03.16.08.22c.05.06.11.1.18.13h1.24s.08.04.08.08-.04.08-.08.08h-1.25s-.02,0-.03,0c-.11-.03-.21-.1-.28-.19-.07-.09-.11-.2-.11-.33,0-.02,0-.05,0-.07l-1.94-.58c-.06-.03-.13-.04-.2-.03-.07,0-.13.03-.19.07-.06.04-.1.1-.13.16-.03.06-.04.13-.03.2,0,.07.04.13.08.19.04.05.1.1.17.12l3.64,1.45c.07.03.14.05.21.06.07.01.14.02.22.02h2.08s0-1.73,0-1.73ZM7.45,3.97h-.89v2.75h.89v-2.75Z"/></svg>