<?xml version="1.0" encoding="UTF-8"?>
<svg id="Layer_1" data-name="Layer 1" xmlns="http://www.w3.org/2000/svg" viewBox="0 0 321.74 321.74">
  <path d="M139.7,86.37h133.21c26.88,0,48.83,21.95,48.83,48.83v137.71c0,26.88-21.95,48.83-48.83,48.83h-133.21c-26.88,0-48.83-21.95-48.83-48.83v-137.71c0-26.88,21.94-48.83,48.83-48.83h0ZM0,186.54V48.83C0,21.98,21.97,0,48.83,0h133.21v22.46H48.83c-14.51,0-26.37,11.85-26.37,26.37v137.71H0ZM45.43,229.73V92.02c0-26.85,21.97-48.83,48.83-48.83h133.21v22.46H94.26c-14.51,0-26.37,11.86-26.37,26.37v137.71h-22.46ZM272.9,108.84h-133.21c-14.48,0-26.37,11.89-26.37,26.37v137.71c0,14.48,11.89,26.37,26.37,26.37h133.21c14.48,0,26.37-11.89,26.37-26.37v-137.71c0-14.48-11.89-26.37-26.37-26.37Z"/>
</svg>