<?xml version="1.0" encoding="UTF-8"?>
<svg id="Layer_1" xmlns="http://www.w3.org/2000/svg" version="1.1" viewBox="0 0 512 431">
  <!-- Generator: Adobe Illustrator 29.2.1, SVG Export Plug-In . SVG Version: 2.1.0 Build 116)  -->
  <path d="M29.8,72.1c-4,5.9-6.1,12.9-6.1,20v196.8c0,8.3,2.9,16.4,8.2,22.8l129.8-97.7L29.8,72.1Z"/>
  <path d="M202.9,229.2c.3,0,.7.1,1,.2,6.8,1,13.9-1.6,19.2-7.2L375,63c-5.7-4.1-12.6-6.3-19.6-6.3H58.3c-5.9,0-11.7,1.5-16.8,4.5l149.7,161c3.1,3.5,7.2,6,11.7,7Z"/>
  <path d="M275.4,231.3c5.7-17.1,15.3-32.7,27.9-45.6,21.8-22.4,51.7-35,83-35,1.2,0,2.5,0,3.7,0v-58.8c0-6-1.5-11.8-4.3-17.1l-133.1,139.6,22.8,16.8Z"/>
  <path d="M458.3,197.2c-38.5-39.7-101.9-40.8-141.7-2.3-.7.7-1.3,1.3-2,2-39.7,40.4-39.5,106.3.2,146.9,38.5,39.7,101.9,40.7,141.7,2.2.7-.6,1.3-1.3,2-2,39.7-40.4,39.5-106.3-.2-146.9ZM436.1,219.9l-29.3,121.8c-1.7,7.2-8,12.3-15.3,12.5h-.5c-7.2,0-13.5-4.6-15.5-11.5l-12-38.9-40.3,4.9c-9,1-17-5.4-18-14.4-.6-5.6,1.7-11.2,6.2-14.7l99.1-76.3c7.1-5.5,17.3-4.2,22.8,3,3,3.9,4.1,9,2.9,13.8h0Z"/>
  <path d="M271,248l-29.7-21.8-6.6,6.9c-7.2,7.8-17.4,12.3-28,12.4-1.8,0-3.5-.1-5.3-.4-.6,0-1.2-.2-1.8-.3-7.8-1.7-14.9-5.8-20.3-11.8l-6.8-7.3-127.3,95.9c4.1,1.7,8.6,2.6,13.1,2.6h223.3c-11.6-23.6-15.4-50.4-10.6-76.3Z"/>
  <path d="M420.3,215.7h-.1c0,0-99.1,76.4-99.1,76.4,0,0-.1,0-.1.1,0,.2,0,.3.2.4h.2l42.4-5.1c.5,0,1.1-.1,1.6-.1,5.9,0,11.2,3.9,12.9,9.6l12.6,40.9c0,0,0,.1,0,.2.1,0,.3,0,.4,0,0,0,0-.1,0-.2l29.3-121.8c0,0,0-.1,0-.2,0-.1-.2-.2-.3-.3Z"/>
</svg>