<?xml version="1.0" encoding="UTF-8"?>
<svg id="Layer_1" data-name="Layer 1" xmlns="http://www.w3.org/2000/svg" version="1.1" viewBox="0 0 24.4 30">
  <defs>
    <style>
      .cls-1 {
        fill: #000;
        stroke-width: 0px;
      }
    </style>
  </defs>
  <path class="cls-1" d="M21.5,22c.6.6.6,1.7,0,2.3-.3.3-.7.5-1.2.5s-.8-.2-1.2-.5l-7-7-7,7c-.3.3-.7.5-1.2.5s-.8-.2-1.2-.5c-.6-.6-.6-1.7,0-2.3l7-7L2.9,8c-.6-.6-.6-1.7,0-2.3.6-.6,1.7-.6,2.3,0l7,7,7-7c.6-.6,1.7-.6,2.3,0,.6.6.6,1.7,0,2.3l-7,7,7,7Z"/>
</svg>