<?xml version="1.0" encoding="UTF-8"?>
<svg id="Layer_1" data-name="Layer 1" xmlns="http://www.w3.org/2000/svg" version="1.1" viewBox="0 0 24 30">
  <defs>
    <style>
      .cls-1 {
        fill: #000;
        fill-rule: evenodd;
        stroke-width: 0px;
      }
    </style>
  </defs>
  <path class="cls-1" d="M17.1,5c.3,0,.5.1.7.3l3.4,3.4c.4.4.4,1,0,1.4l-10.2,10.2c-.2.2-.4.3-.6.3l-3.8.3c-.3,0-.6,0-.8-.3-.2-.2-.3-.5-.3-.8l.3-3.8c0-.2.1-.5.3-.6l10.2-10.2c.2-.2.4-.3.7-.3ZM15.4,9.1l2,2,1.7-1.7-2-2-1.7,1.7ZM16,12.5l-2-2-6.2,6.2-.2,2.2,2.2-.2,6.2-6.2Z"/>
  <path class="cls-1" d="M14.5,25H2.5v-2h12v2Z"/>
</svg>