<?xml version="1.0" encoding="UTF-8"?>
<svg id="Layer_1" xmlns="http://www.w3.org/2000/svg" version="1.1" viewBox="0 0 110 110">
  <!-- Generator: Adobe Illustrator 29.1.0, SVG Export Plug-In . SVG Version: 2.1.0 Build 142)  -->
  <defs>
    <style>
      .st0 {
        fill: #fff;
      }
    </style>
  </defs>
  <path class="st0" d="M89.5,48h-1c-1.9,0-3.6-1.2-4.2-2.9-.4-1.3-1-2.6-1.6-3.8-.8-1.7-.4-3.7.9-5.1l.7-.7c1.7-1.7,1.7-4.6,0-6.3l-3.6-3.6c-1.7-1.7-4.6-1.7-6.3,0l-.7.7c-1.3,1.3-3.4,1.7-5.1.9-1.2-.6-2.5-1.1-3.8-1.6-1.8-.6-2.9-2.3-2.9-4.2v-1c0-2.5-2-4.5-4.5-4.5h-5.1c-2.5,0-4.5,2-4.5,4.5v1c0,1.9-1.2,3.6-2.9,4.2-1.3.4-2.6,1-3.8,1.6-1.7.8-3.7.4-5.1-.9l-.7-.7c-1.7-1.7-4.6-1.7-6.3,0l-3.6,3.6c-1.7,1.7-1.7,4.6,0,6.3l.7.7c1.3,1.3,1.7,3.4.9,5.1-.6,1.2-1.1,2.5-1.6,3.8-.6,1.8-2.3,2.9-4.2,2.9h-1c-2.5,0-4.5,2-4.5,4.5v5.1c0,2.5,2,4.5,4.5,4.5h1c1.9,0,3.6,1.2,4.2,2.9.4,1.3,1,2.6,1.6,3.8.8,1.7.4,3.7-.9,5.1l-.7.7c-1.7,1.7-1.7,4.6,0,6.3l3.6,3.6c1.7,1.7,4.6,1.7,6.3,0l.7-.7c1.3-1.3,3.4-1.7,5.1-.9,1.2.6,2.5,1.1,3.8,1.6,1.8.6,2.9,2.3,2.9,4.2v1c0,2.5,2,4.5,4.5,4.5h5.1c2.5,0,4.5-2,4.5-4.5v-1c0-1.9,1.2-3.6,2.9-4.2,1.3-.4,2.6-1,3.8-1.6,1.7-.8,3.7-.4,5.1.9l.7.7c1.7,1.7,4.6,1.7,6.3,0l3.6-3.6c1.7-1.7,1.7-4.6,0-6.3l-.7-.7c-1.3-1.3-1.7-3.4-.9-5.1.6-1.2,1.1-2.5,1.6-3.8.6-1.8,2.3-2.9,4.2-2.9h1c2.5,0,4.5-2,4.5-4.5v-5.1c0-2.5-2-4.5-4.5-4.5ZM55,68c-7.2,0-13-5.8-13-13s5.8-13,13-13,13,5.8,13,13-5.8,13-13,13Z"/>
</svg>