<?xml version="1.0" encoding="utf-8"?>
<!-- Generator: Adobe Illustrator 25.4.1, SVG Export Plug-In . SVG Version: 6.00 Build 0)  -->
<svg version="1.1" id="Layer_1" xmlns="http://www.w3.org/2000/svg" xmlns:xlink="http://www.w3.org/1999/xlink" x="0px" y="0px"
	 viewBox="0 0 79 100" style="enable-background:new 0 0 79 100;" xml:space="preserve">
<style type="text/css">
	.st0{fill:#51BB45;}
</style>
<g>
	<g>
		<path class="st0" d="M44.6,18.9V1h-33C6,1,1.5,5.6,1.5,11.2v77.7C1.5,94.4,6,99,11.6,99h55.8c5.6,0,10.1-4.5,10.1-10.1V33.9H59.6
			C51.3,33.9,44.6,27.2,44.6,18.9z M61.6,80.9h-47c-2.1,0-3.8-1.7-3.8-3.8c0-2.1,1.7-3.8,3.8-3.8h47c2.1,0,3.8,1.7,3.8,3.8
			C65.4,79.2,63.7,80.9,61.6,80.9z M61.6,65h-47c-2.1,0-3.8-1.7-3.8-3.8c0-2.1,1.7-3.8,3.8-3.8h47c2.1,0,3.8,1.7,3.8,3.8
			C65.4,63.3,63.7,65,61.6,65z M65.4,44.9c0,2.1-1.7,3.8-3.8,3.8h-47c-2.1,0-3.8-1.7-3.8-3.8c0-2.1,1.7-3.8,3.8-3.8h47
			C63.7,41.1,65.4,42.8,65.4,44.9z"/>
		<path class="st0" d="M59.6,29h17.9l-28-28v17.9C49.5,24.5,54,29,59.6,29z"/>
	</g>
</g>
</svg>
