<?xml version="1.0" encoding="utf-8"?>
<!-- Generator: Adobe Illustrator 25.4.1, SVG Export Plug-In . SVG Version: 6.00 Build 0)  -->
<svg version="1.1" id="Layer_1" xmlns="http://www.w3.org/2000/svg" xmlns:xlink="http://www.w3.org/1999/xlink" x="0px" y="0px"
	 viewBox="0 0 512 431" style="enable-background:new 0 0 512 431;" xml:space="preserve">
<style type="text/css">
	.st0{fill:#51BB45;}
</style>
<path class="st0" d="M29.8,72.1c-4,5.9-6.1,12.9-6.1,20v196.8c0,8.3,2.9,16.4,8.2,22.8L161.7,214L29.8,72.1z"/>
<path class="st0" d="M202.9,229.2c0.3,0,0.7,0.1,1,0.2c6.8,1,13.9-1.6,19.2-7.2L375,63c-5.7-4.1-12.6-6.3-19.6-6.3H58.3
	c-5.9,0-11.7,1.5-16.8,4.5l149.7,161C194.3,225.7,198.4,228.2,202.9,229.2z"/>
<path class="st0" d="M275.4,231.3c5.7-17.1,15.3-32.7,27.9-45.6c21.8-22.4,51.7-35,83-35c1.2,0,2.5,0,3.7,0V91.9
	c0-6-1.5-11.8-4.3-17.1L252.6,214.4L275.4,231.3L275.4,231.3z"/>
<path class="st0" d="M458.3,197.2c-38.5-39.7-101.9-40.8-141.7-2.3c-0.7,0.7-1.3,1.3-2,2c-39.7,40.4-39.5,106.3,0.2,146.9
	c38.5,39.7,101.9,40.7,141.7,2.2c0.7-0.6,1.3-1.3,2-2C498.2,303.6,498,237.7,458.3,197.2L458.3,197.2z M436.1,219.9l-29.3,121.8
	c-1.7,7.2-8,12.3-15.3,12.5H391c-7.2,0-13.5-4.6-15.5-11.5l-12-38.9l-40.3,4.9c-9,1-17-5.4-18-14.4c-0.6-5.6,1.7-11.2,6.2-14.7
	l99.1-76.3c7.1-5.5,17.3-4.2,22.8,3c3,3.9,4.1,9,2.9,13.8l0,0L436.1,219.9z"/>
<path class="st0" d="M271,248l-29.7-21.8l-6.6,6.9c-7.2,7.8-17.4,12.3-28,12.4c-1.8,0-3.5-0.1-5.3-0.4c-0.6,0-1.2-0.2-1.8-0.3
	c-7.8-1.7-14.9-5.8-20.3-11.8l-6.8-7.3L45.2,321.6c4.1,1.7,8.6,2.6,13.1,2.6h223.3C270,300.6,266.2,273.8,271,248L271,248z"/>
<path class="st0" d="M420.3,215.7h-0.1l-99.1,76.4c0,0-0.1,0-0.1,0.1c0,0.2,0,0.3,0.2,0.4h0.2l42.4-5.1c0.5,0,1.1-0.1,1.6-0.1
	c5.9,0,11.2,3.9,12.9,9.6l12.6,40.9c0,0,0,0.1,0,0.2c0.1,0,0.3,0,0.4,0c0,0,0-0.1,0-0.2l29.3-121.8c0,0,0-0.1,0-0.2
	c0-0.1-0.2-0.2-0.3-0.3V215.7z"/>
</svg>
