<?xml version="1.0" encoding="utf-8"?>
<!-- Generator: Adobe Illustrator 25.4.1, SVG Export Plug-In . SVG Version: 6.00 Build 0)  -->
<svg version="1.1" id="Layer_1" xmlns="http://www.w3.org/2000/svg" xmlns:xlink="http://www.w3.org/1999/xlink" x="0px" y="0px"
	 viewBox="0 0 512 431" style="enable-background:new 0 0 512 431;" xml:space="preserve">
<style type="text/css">
	.st0{fill:#51BB45;}
</style>
<path class="st0" d="M29.8,72.1c-4,5.9-6.1,12.9-6.1,20v196.8c0,8.3,2.9,16.4,8.2,22.8L161.7,214L29.8,72.1z"/>
<path class="st0" d="M202.9,229.2c0.3,0,0.7,0.1,1,0.2c6.8,1,13.9-1.6,19.2-7.2L375,63c-5.7-4.1-12.6-6.3-19.6-6.3H58.3
	c-5.9,0-11.7,1.5-16.8,4.5l149.7,161C194.3,225.7,198.4,228.2,202.9,229.2z"/>
<path class="st0" d="M275.4,231.3c5.7-17.1,15.3-32.7,27.9-45.6c21.8-22.4,51.7-35,83-35c1.2,0,2.5,0,3.7,0V91.9
	c0-6-1.5-11.8-4.3-17.1L252.6,214.4L275.4,231.3L275.4,231.3z"/>
<path class="st0" d="M458.3,197.2c-38.5-39.7-101.9-40.8-141.7-2.3c-0.7,0.7-1.3,1.3-2,2c-39.7,40.4-39.5,106.3,0.2,146.9
	c38.5,39.7,101.9,40.7,141.7,2.2c0.7-0.6,1.3-1.3,2-2C498.2,303.6,498,237.7,458.3,197.2L458.3,197.2z M373.4,290.3
	c0.5-0.9,0.8-1.8,1.3-2.4c19.2-20.7,38.5-41.4,57.8-62.1c6-6.4,13.7-8,21-4.2c8.9,4.5,11.7,16.4,5.8,24.5c-0.6,0.8-1.2,1.6-1.9,2.3
	c-23.6,25.4-47.2,50.7-70.7,76c-4.9,5.3-10.9,7.3-17.8,5.1c-2.5-0.8-4.9-2.3-6.9-4.1c-12.9-11.8-25.7-23.7-38.4-35.7
	c-9-8.4-7.5-21.8,3.1-27.5c6-3.2,12.2-2.9,17.6,1.4c4.6,3.6,8.6,7.7,12.9,11.6C362.4,280,367.5,284.9,373.4,290.3z"/>
<path class="st0" d="M271,248l-29.7-21.8l-6.6,6.9c-7.2,7.8-17.4,12.3-28,12.4c-1.8,0-3.5-0.1-5.3-0.4c-0.6,0-1.2-0.2-1.8-0.3
	c-7.8-1.7-14.9-5.8-20.3-11.8l-6.8-7.3L45.2,321.6c4.1,1.7,8.6,2.6,13.1,2.6h223.3c-11.6-23.6-15.4-50.4-10.6-76.3L271,248z"/>
</svg>
