<?xml version="1.0" encoding="UTF-8"?>
<svg id="Layer_1" xmlns="http://www.w3.org/2000/svg" version="1.1" viewBox="0 0 512 399">
  <!-- Generator: Adobe Illustrator 29.1.0, SVG Export Plug-In . SVG Version: 2.1.0 Build 142)  -->
  <path d="M158.5,81.4c-3.7-3.7-10.1-1.1-10.1,4.2s6.4,7.9,10.1,4.2c2.3-2.4,2.3-6.1,0-8.4h0ZM154.3,71.6c12.4,0,18.6,15,9.8,23.8-8.7,8.8-23.7,2.5-23.7-9.8,0-7.7,6.3-14,13.9-14h0ZM199.5,81.4c-3.7-3.7-10.1-1.1-10.1,4.2s6.4,7.9,10.1,4.2c2.3-2.4,2.3-6.1,0-8.4h0ZM195.3,71.6c12.4,0,18.6,15,9.8,23.8-8.7,8.8-23.8,2.5-23.8-9.8,0-7.7,6.4-14,14-14h0ZM240.5,81.4c-3.7-3.7-10.1-1.1-10.1,4.2s6.4,7.9,10.1,4.2c2.3-2.4,2.3-6.1,0-8.4h0ZM236.3,71.6c12.3,0,18.6,15,9.8,23.8-8.8,8.8-23.8,2.5-23.8-9.8,0-7.7,6.3-14,14-14h0ZM387.3,79.6h-83c-2.6,0-4.6,2.1-4.6,4.6s-.3,4.2,1.4,5.8c.8.8,2,1.4,3.3,1.4h83c2.5,0,4.6-2.1,4.6-4.6s.3-4.2-1.4-5.8c-.9-.9-2.1-1.4-3.3-1.4h0ZM304.3,71.6h83c6.9,0,12.6,5.7,12.6,12.6s-.1,7.9-3.7,11.5c-2.3,2.3-5.4,3.7-8.9,3.7h-83c-6.9,0-12.6-5.7-12.6-12.6s.1-7.9,3.7-11.5c2.2-2.2,5.4-3.7,8.9-3.7h0ZM302.9,152.3h-50.2c-1.1,0-2.1.9-2.1,2.1v28.9c0,1.2.9,2.1,2.1,2.1h50.2l1.5-.6h0c.4-.4.6-.9.6-1.5v-28.9c-.1-1.2-1-2.1-2.1-2.1h0ZM135.8,257.4c-30.5,0-49.1,19.1-50.7,48.5h101.3c-1.5-29.5-20.2-48.5-50.6-48.5h0ZM151.9,210.4c-14.3-14.3-39-4.1-39,16.1s24.6,30.5,39,16.2c8.9-8.9,8.9-23.4,0-32.3h0ZM135.8,195.7c17,0,30.8,13.8,30.8,30.8s-5,19.4-12.9,25.1c25.2,6.7,39.4,27.7,40.7,54.2,9.4-.9,16.8-8.9,16.8-18.5v-112c0-10.2-8.4-18.6-18.6-18.6h-113.7c-10.2,0-18.6,8.4-18.6,18.6v111.9c0,9.6,7.4,17.6,16.8,18.5,1.3-26.5,15.5-47.5,40.7-54.2-15.4-11.1-17.3-33.4-3.8-46.9,5.5-5.4,13.2-8.9,21.8-8.9h0ZM407.8,117.1l10.5-22v-20.8c0-12-9.8-21.8-21.8-21.8h-252.8c-12,0-21.8,9.8-21.8,21.8v42.8h285.9ZM373.8,188.5l30.3-63.5H121.9v23.7h70.8c14.6,0,26.6,12,26.6,26.6v111.9c0,14.6-12,26.6-26.6,26.6h-70.8v10.9c0,12,9.8,21.8,21.8,21.8h252.8c12,0,21.8-9.8,21.8-21.8v-123.7l-3.4,7.2-5.5,21c-.1.3-.2.7-.3,1l-24.2,50.7h0c-.2.4-.5.8-.8,1.2l-47.6,46.3h0c-2.6,2.6-7.1.5-6.7-3.2l6-65.8c0-.6.1-1.2.4-1.7l24.2-50.7h0l13.3-18.5ZM344.8,258.2c13.1.9,25.4,6.8,34.4,16.4l22.6-47.5,5.5-21.3c.1-.2.2-.5.3-.7h0l44.1-92.5c-6.5-8.2-16.3-12.8-26.7-12.7l-44.1,92.5c-.2.3-.3.6-.6.9l-12.9,17.5-22.6,47.4ZM374,280.8c-7.9-8.8-19-14.1-30.9-14.7l-4.5,49.1,35.4-34.4ZM302.9,212.1h-50.2c-1.1,0-2.1.9-2.1,2.1v28.9c0,1.2.9,2.1,2.1,2.1h50.2l1.5-.6h0c.4-.4.6-.9.6-1.4v-28.9c-.1-1.3-1-2.2-2.1-2.2h0ZM302.9,271.9h-50.2c-1.1,0-2.1.9-2.1,2.1v28.9c0,1.2.9,2.1,2.1,2.1h50.2l1.5-.6h0c.4-.4.6-.9.6-1.5v-28.9c-.1-1.2-1-2.1-2.1-2.1h0ZM281.7,193.4v10.7h21.2c5.6,0,10.1,4.5,10.1,10.1v28.9c0,2.8-1.1,5.3-2.9,7.1h0c-1.8,1.8-4.3,2.9-7.1,2.9h-21v10.7h21c5.6,0,10.1,4.5,10.1,10.1v28.9c0,2.8-1.1,5.3-2.9,7.1h0c-1.8,1.8-4.3,2.9-7.1,2.9h-50.2c-5.6,0-10.1-4.5-10.1-10.1v-28.9c0-5.5,4.5-10.1,10.1-10.1h21.2v-10.7h-21.2c-5.6,0-10.1-4.5-10.1-10.1v-28.9c0-5.5,4.5-10.1,10.1-10.1h21v-10.7h-21.1c-5.6,0-10.1-4.6-10.1-10.1v-28.9c0-5.5,4.5-10.1,10.1-10.1h50.2c5.6,0,10.1,4.5,10.1,10.1v28.9c0,2.8-1.1,5.3-2.9,7.1h0c-1.8,1.8-4.3,3-7.1,3h-21.4v.2Z"/>
</svg>