<?xml version="1.0" encoding="UTF-8"?>
<svg id="Layer_1" xmlns="http://www.w3.org/2000/svg" version="1.1" viewBox="0 0 100 108.6">
  <!-- Generator: Adobe Illustrator 29.1.0, SVG Export Plug-In . SVG Version: 2.1.0 Build 142)  -->
  <defs>
    <style>
      .st0 {
        fill: #aaa;
      }
    </style>
  </defs>
  <path class="st0" d="M81.9,22.4c-7-7-12.3-6-12.3-6l-24.5,24.5-28.1,28.1-4.9,23.1,23.1-4.9,52.6-52.6s1-5.3-6-12.3h.1ZM33.9,84.5l-7.9,1.7c-.8-1.4-1.6-2.9-3.4-4.5-1.6-1.6-3.1-2.6-4.5-3.4l1.7-7.9,2.3-2.3s4.3,0,9.1,4.9c4.9,4.9,4.9,9.1,4.9,9.1l-2.3,2.3h0Z"/>
  <path class="st0" d="M27.5,52l3.3-3.3-15.1-15.2,13.4-13.4,3.1,3.1-4.2,4.2c-1,1-1,2.4,0,3.3,1,1,2.4,1,3.3,0l4.2-4.2,5.7,5.7-4.2,4.2c-1,1-1,2.4,0,3.3.5.5,1.2.7,1.8.7l8.6-8.6-15.3-15.3c-1.6-1.6-4.5-1.6-6.3.3l-13.4,13.4c-1.8,1.8-2,4.7-.3,6.3l15.3,15.3h0v.2Z"/>
  <path class="st0" d="M87.9,72.1l-15.3-15.3-8.8,8.8c0,.5.3,1,.6,1.4,1,1,2.4,1,3.3,0l4.2-4.2,5.7,5.7-4.2,4.2c-1,1-1,2.4,0,3.3,1,1,2.4,1,3.3,0l4.2-4.2,3.3,3.3h0l-13.4,13.4-15.1-15.1-3.3,3.3,15.3,15.3c1.6,1.6,4.5,1.6,6.3-.3l13.4-13.4c1.8-1.8,2-4.7.3-6.3h.2,0Z"/>
</svg>