<?xml version="1.0" encoding="UTF-8"?>
<svg class="nav-icon" height="1em" id="Layer_1" data-name="Layer 1" xmlns="http://www.w3.org/2000/svg" viewBox="0 0 76.41 95.13">
  <path d="M.63,17.92L17.97.59c.39-.39.9-.59,1.41-.59h41.63c2.39,0,4.57.98,6.14,2.55,1.23,1.23,2.1,2.83,2.42,4.61,1.65.36,3.12,1.2,4.28,2.35,1.57,1.57,2.55,3.75,2.55,6.14v70.77c0,2.39-.98,4.57-2.55,6.14-1.57,1.57-3.75,2.55-6.14,2.55H15.4c-2.39,0-4.57-.98-6.14-2.55-1.23-1.23-2.1-2.83-2.42-4.61-1.65-.36-3.12-1.2-4.28-2.35C.99,84.04,0,81.86,0,79.47v-2.96h4v2.96c0,1.29.53,2.46,1.38,3.32.85.85,2.03,1.38,3.32,1.38h52.31c1.29,0,2.46-.53,3.32-1.38.85-.85,1.38-2.03,1.38-3.32V8.7c0-1.29-.53-2.46-1.38-3.32-.85-.85-2.03-1.38-3.32-1.38H21.38v8.68c0,2.39-.98,4.57-2.55,6.14-1.57,1.57-3.75,2.55-6.14,2.55H4v42.42H0V19.39c0-.57.24-1.09.63-1.46h0ZM0,72.21v-4.11h4v4.11H0ZM69.71,11.42v68.05c0,2.39-.98,4.57-2.55,6.14-1.57,1.57-3.75,2.55-6.14,2.55H11.04c.24.6.6,1.13,1.05,1.58.85.85,2.03,1.38,3.32,1.38h52.31c1.29,0,2.46-.53,3.32-1.38.85-.85,1.38-2.03,1.38-3.32V15.67c0-1.29-.53-2.46-1.38-3.32-.38-.38-.82-.7-1.32-.93h0ZM6.83,17.39h5.85c1.29,0,2.46-.53,3.32-1.38.85-.85,1.38-2.03,1.38-3.32v-5.85l-10.55,10.55h0Z" fill="#A4CAE9"/>
  <polygon points="0 63.8 0 77.71 4 77.71 4 61.77 0 63.8"/>
  <path d="M13.86,28.05c2.34-2.34,6.14-2.34,8.48,0l12.72,12.72,12.72-12.72c2.34-2.34,6.14-2.34,8.48,0s2.34,6.14,0,8.48l-12.72,12.72,12.72,12.72c2.34,2.34,2.34,6.14,0,8.48s-6.14,2.34-8.48,0l-12.72-12.72-12.72,12.72c-2.34,2.34-6.14,2.34-8.48,0s-2.34-6.14,0-8.48l12.72-12.72-12.72-12.72c-2.34-2.34-2.34-6.14,0-8.48Z" fill="#A4CAE9"/>
</svg>